<svg width="20" height="20" viewBox="0 0 20 20" fill="none" xmlns="http://www.w3.org/2000/svg">
<path d="M5.25875 9.37506H16.875C17.0408 9.37506 17.1997 9.44091 17.3169 9.55812C17.4342 9.67533 17.5 9.8343 17.5 10.0001C17.5 10.1658 17.4342 10.3248 17.3169 10.442C17.1997 10.5592 17.0408 10.6251 16.875 10.6251H5.25875L9.8175 15.1826C9.93486 15.2999 10.0008 15.4591 10.0008 15.6251C10.0008 15.791 9.93486 15.9502 9.8175 16.0676C9.70014 16.1849 9.54097 16.2508 9.375 16.2508C9.20903 16.2508 9.04986 16.1849 8.9325 16.0676L3.3075 10.4426C3.24929 10.3845 3.20312 10.3155 3.17161 10.2396C3.1401 10.1637 3.12388 10.0823 3.12388 10.0001C3.12388 9.91785 3.1401 9.83645 3.17161 9.76052C3.20312 9.68458 3.24929 9.61561 3.3075 9.55756L8.9325 3.93256C9.04986 3.8152 9.20903 3.74927 9.375 3.74927C9.54097 3.74927 9.70014 3.8152 9.8175 3.93256C9.93486 4.04992 10.0008 4.20909 10.0008 4.37506C10.0008 4.54103 9.93486 4.7002 9.8175 4.81756L5.25875 9.37506Z" fill="#0B0D10" style="fill:#0B0D10;fill:color(display-p3 0.0431 0.0510 0.0627);fill-opacity:1;"/>
<path d="M5.25875 9.37506H16.875C17.0408 9.37506 17.1997 9.44091 17.3169 9.55812C17.4342 9.67533 17.5 9.8343 17.5 10.0001C17.5 10.1658 17.4342 10.3248 17.3169 10.442C17.1997 10.5592 17.0408 10.6251 16.875 10.6251H5.25875L9.8175 15.1826C9.93486 15.2999 10.0008 15.4591 10.0008 15.6251C10.0008 15.791 9.93486 15.9502 9.8175 16.0676C9.70014 16.1849 9.54097 16.2508 9.375 16.2508C9.20903 16.2508 9.04986 16.1849 8.9325 16.0676L3.3075 10.4426C3.24929 10.3845 3.20312 10.3155 3.17161 10.2396C3.1401 10.1637 3.12388 10.0823 3.12388 10.0001C3.12388 9.91785 3.1401 9.83645 3.17161 9.76052C3.20312 9.68458 3.24929 9.61561 3.3075 9.55756L8.9325 3.93256C9.04986 3.8152 9.20903 3.74927 9.375 3.74927C9.54097 3.74927 9.70014 3.8152 9.8175 3.93256C9.93486 4.04992 10.0008 4.20909 10.0008 4.37506C10.0008 4.54103 9.93486 4.7002 9.8175 4.81756L5.25875 9.37506Z" fill="black" fill-opacity="0.2" style="fill:black;fill-opacity:0.2;"/>
</svg>
