<svg width="50" height="50" viewBox="0 0 50 50" fill="none" xmlns="http://www.w3.org/2000/svg">
<rect x="-0.5" y="0.5" width="49" height="49" rx="4.5" transform="matrix(-1 0 0 1 49 0)" stroke="#0B0D10" stroke-opacity="0.5" style="stroke:#0B0D10;stroke:color(display-p3 0.0431 0.0510 0.0627);stroke-opacity:0.5;"/>
<path d="M20.2587 24.3748H31.875C32.0408 24.3748 32.1997 24.4407 32.3169 24.5579C32.4342 24.6751 32.5 24.8341 32.5 24.9998C32.5 25.1656 32.4342 25.3245 32.3169 25.4418C32.1997 25.559 32.0408 25.6248 31.875 25.6248H20.2587L24.8175 30.1823C24.9349 30.2997 25.0008 30.4588 25.0008 30.6248C25.0008 30.7908 24.9349 30.95 24.8175 31.0673C24.7001 31.1847 24.541 31.2506 24.375 31.2506C24.209 31.2506 24.0499 31.1847 23.9325 31.0673L18.3075 25.4423C18.2493 25.3843 18.2031 25.3153 18.1716 25.2394C18.1401 25.1634 18.1239 25.082 18.1239 24.9998C18.1239 24.9176 18.1401 24.8362 18.1716 24.7603C18.2031 24.6843 18.2493 24.6154 18.3075 24.5573L23.9325 18.9323C24.0499 18.815 24.209 18.749 24.375 18.749C24.541 18.749 24.7001 18.815 24.8175 18.9323C24.9349 19.0497 25.0008 19.2088 25.0008 19.3748C25.0008 19.5408 24.9349 19.7 24.8175 19.8173L20.2587 24.3748Z" fill="#0B0D10" style="fill:#0B0D10;fill:color(display-p3 0.0431 0.0510 0.0627);fill-opacity:1;"/>
<path d="M20.2587 24.3748H31.875C32.0408 24.3748 32.1997 24.4407 32.3169 24.5579C32.4342 24.6751 32.5 24.8341 32.5 24.9998C32.5 25.1656 32.4342 25.3245 32.3169 25.4418C32.1997 25.559 32.0408 25.6248 31.875 25.6248H20.2587L24.8175 30.1823C24.9349 30.2997 25.0008 30.4588 25.0008 30.6248C25.0008 30.7908 24.9349 30.95 24.8175 31.0673C24.7001 31.1847 24.541 31.2506 24.375 31.2506C24.209 31.2506 24.0499 31.1847 23.9325 31.0673L18.3075 25.4423C18.2493 25.3843 18.2031 25.3153 18.1716 25.2394C18.1401 25.1634 18.1239 25.082 18.1239 24.9998C18.1239 24.9176 18.1401 24.8362 18.1716 24.7603C18.2031 24.6843 18.2493 24.6154 18.3075 24.5573L23.9325 18.9323C24.0499 18.815 24.209 18.749 24.375 18.749C24.541 18.749 24.7001 18.815 24.8175 18.9323C24.9349 19.0497 25.0008 19.2088 25.0008 19.3748C25.0008 19.5408 24.9349 19.7 24.8175 19.8173L20.2587 24.3748Z" fill="black" fill-opacity="0.2" style="fill:black;fill-opacity:0.2;"/>
</svg>
