<svg width="30" height="30" viewBox="0 0 30 30" fill="none" xmlns="http://www.w3.org/2000/svg">
<path fill-rule="evenodd" clip-rule="evenodd" d="M8.49098 8.4912C8.72539 8.25686 9.04328 8.12522 9.37473 8.12522C9.70619 8.12522 10.0241 8.25686 10.2585 8.4912L14.9997 13.2324L19.741 8.4912C19.8563 8.37181 19.9942 8.27658 20.1467 8.21107C20.2992 8.14556 20.4633 8.11108 20.6292 8.10964C20.7952 8.10819 20.9598 8.13982 21.1134 8.20267C21.267 8.26552 21.4066 8.35834 21.524 8.4757C21.6413 8.59307 21.7342 8.73264 21.797 8.88626C21.8599 9.03988 21.8915 9.20448 21.89 9.37045C21.8886 9.53642 21.8541 9.70045 21.7886 9.85295C21.7231 10.0055 21.6279 10.1434 21.5085 10.2587L16.7672 14.9999L21.5085 19.7412C21.7362 19.977 21.8622 20.2927 21.8593 20.6205C21.8565 20.9482 21.725 21.2617 21.4933 21.4935C21.2615 21.7252 20.948 21.8567 20.6202 21.8595C20.2925 21.8624 19.9767 21.7364 19.741 21.5087L14.9997 16.7674L10.2585 21.5087C10.0227 21.7364 9.70698 21.8624 9.37923 21.8595C9.05149 21.8567 8.73797 21.7252 8.50621 21.4935C8.27445 21.2617 8.14299 20.9482 8.14014 20.6205C8.13729 20.2927 8.26329 19.977 8.49098 19.7412L13.2322 14.9999L8.49098 10.2587C8.25664 10.0243 8.125 9.7064 8.125 9.37495C8.125 9.04349 8.25664 8.72561 8.49098 8.4912Z" fill="#0B0D10" style="fill:#0B0D10;fill:color(display-p3 0.0431 0.0510 0.0627);fill-opacity:1;"/>
<path fill-rule="evenodd" clip-rule="evenodd" d="M8.49098 8.4912C8.72539 8.25686 9.04328 8.12522 9.37473 8.12522C9.70619 8.12522 10.0241 8.25686 10.2585 8.4912L14.9997 13.2324L19.741 8.4912C19.8563 8.37181 19.9942 8.27658 20.1467 8.21107C20.2992 8.14556 20.4633 8.11108 20.6292 8.10964C20.7952 8.10819 20.9598 8.13982 21.1134 8.20267C21.267 8.26552 21.4066 8.35834 21.524 8.4757C21.6413 8.59307 21.7342 8.73264 21.797 8.88626C21.8599 9.03988 21.8915 9.20448 21.89 9.37045C21.8886 9.53642 21.8541 9.70045 21.7886 9.85295C21.7231 10.0055 21.6279 10.1434 21.5085 10.2587L16.7672 14.9999L21.5085 19.7412C21.7362 19.977 21.8622 20.2927 21.8593 20.6205C21.8565 20.9482 21.725 21.2617 21.4933 21.4935C21.2615 21.7252 20.948 21.8567 20.6202 21.8595C20.2925 21.8624 19.9767 21.7364 19.741 21.5087L14.9997 16.7674L10.2585 21.5087C10.0227 21.7364 9.70698 21.8624 9.37923 21.8595C9.05149 21.8567 8.73797 21.7252 8.50621 21.4935C8.27445 21.2617 8.14299 20.9482 8.14014 20.6205C8.13729 20.2927 8.26329 19.977 8.49098 19.7412L13.2322 14.9999L8.49098 10.2587C8.25664 10.0243 8.125 9.7064 8.125 9.37495C8.125 9.04349 8.25664 8.72561 8.49098 8.4912Z" fill="black" fill-opacity="0.2" style="fill:black;fill-opacity:0.2;"/>
</svg>
