<svg width="451" height="56" viewBox="0 0 451 56" fill="none" xmlns="http://www.w3.org/2000/svg">
<g clip-path="url(#clip0_1_2)">
<path opacity="0.992" fill-rule="evenodd" clip-rule="evenodd" d="M-0.119339 -0.119324C8.31323 -0.119324 16.7458 -0.119324 25.1784 -0.119324C25.1784 5.36981 25.1784 10.8589 25.1784 16.3481C34.7247 16.3481 44.271 16.3481 53.8173 16.3481C53.8173 10.8589 53.8173 5.36981 53.8173 -0.119324C62.2498 -0.119324 70.6826 -0.119324 79.1151 -0.119324C79.1151 18.2573 79.1151 36.634 79.1151 55.0106C70.6826 55.0106 62.2498 55.0106 53.8173 55.0106C53.8173 48.9647 53.8173 42.9186 53.8173 36.8726C44.271 36.8726 34.7247 36.8726 25.1784 36.8726C25.1784 42.9186 25.1784 48.9647 25.1784 55.0106C16.7458 55.0106 8.31323 55.0106 -0.119339 55.0106C-0.119339 36.634 -0.119339 18.2573 -0.119339 -0.119324Z" fill="#626B6F" style="fill:#626B6F;fill:color(display-p3 0.3843 0.4196 0.4353);fill-opacity:1;"/>
<path opacity="0.986" fill-rule="evenodd" clip-rule="evenodd" d="M128.756 -0.119324C137.984 -0.119324 147.212 -0.119324 156.44 -0.119324C167.72 18.2242 178.937 36.6008 190.091 55.0106C180.863 55.0106 171.635 55.0106 162.407 55.0106C151.252 36.6008 140.035 18.2242 128.756 -0.119324Z" fill="#626B6F" style="fill:#626B6F;fill:color(display-p3 0.3843 0.4196 0.4353);fill-opacity:1;"/>
<path opacity="0.987" fill-rule="evenodd" clip-rule="evenodd" d="M181.261 -0.119324C190.886 -0.119324 200.512 -0.119324 210.138 -0.119324C216.293 9.92144 222.418 19.9849 228.515 30.0709C223.888 37.9986 219.114 45.8347 214.195 53.5787C203.155 35.7125 192.176 17.8132 181.261 -0.119324Z" fill="#626B6F" style="fill:#626B6F;fill:color(display-p3 0.3843 0.4196 0.4353);fill-opacity:1;"/>
<path opacity="0.986" fill-rule="evenodd" clip-rule="evenodd" d="M249.755 -0.119324C258.984 -0.119324 268.211 -0.119324 277.44 -0.119324C266.161 18.2242 254.944 36.6008 243.789 55.0106C234.561 55.0106 225.333 55.0106 216.105 55.0106C227.22 36.5753 238.437 18.1985 249.755 -0.119324Z" fill="#626B6F" style="fill:#626B6F;fill:color(display-p3 0.3843 0.4196 0.4353);fill-opacity:1;"/>
<path opacity="0.986" fill-rule="evenodd" clip-rule="evenodd" d="M303.453 -0.119324C312.682 -0.119324 321.909 -0.119324 331.138 -0.119324C342.417 18.2242 353.634 36.6008 364.789 55.0106C355.56 55.0106 346.333 55.0106 337.104 55.0106C325.947 36.5941 314.73 18.2175 303.453 -0.119324Z" fill="#626B6F" style="fill:#626B6F;fill:color(display-p3 0.3843 0.4196 0.4353);fill-opacity:1;"/>
<path opacity="0.992" fill-rule="evenodd" clip-rule="evenodd" d="M379.585 -0.119324C388.017 -0.119324 396.451 -0.119324 404.883 -0.119324C404.883 11.4158 404.883 22.9509 404.883 34.4861C420.157 34.4861 435.431 34.4861 450.705 34.4861C450.705 41.3277 450.705 48.169 450.705 55.0106C426.999 55.0106 403.291 55.0106 379.585 55.0106C379.585 36.634 379.585 18.2573 379.585 -0.119324Z" fill="#626B6F" style="fill:#626B6F;fill:color(display-p3 0.3843 0.4196 0.4353);fill-opacity:1;"/>
<path opacity="0.983" fill-rule="evenodd" clip-rule="evenodd" d="M122.789 55.0106C113.164 55.0106 103.538 55.0106 93.9119 55.0106C104.765 36.9655 115.743 18.9866 126.847 1.07397C131.766 8.81802 136.539 16.6539 141.166 24.5818C134.984 34.6992 128.859 44.8422 122.789 55.0106Z" fill="#626B6F" style="fill:#626B6F;fill:color(display-p3 0.3843 0.4196 0.4353);fill-opacity:1;"/>
<path opacity="0.983" fill-rule="evenodd" clip-rule="evenodd" d="M297.248 55.0106C287.702 55.0106 278.156 55.0106 268.609 55.0106C279.483 37.0053 290.42 19.0264 301.425 1.07397C306.329 8.85398 311.143 16.6899 315.864 24.5818C309.704 34.7579 303.499 44.9009 297.248 55.0106Z" fill="#626B6F" style="fill:#626B6F;fill:color(display-p3 0.3843 0.4196 0.4353);fill-opacity:1;"/>
</g>
<defs>
<clipPath id="clip0_1_2">
<rect width="450.825" height="55.13" fill="white" style="fill:white;fill-opacity:1;"/>
</clipPath>
</defs>
</svg>
