<svg width="423" height="65" viewBox="0 0 423 65" fill="none" xmlns="http://www.w3.org/2000/svg">
<g clip-path="url(#clip0_2_2)">
<path fill-rule="evenodd" clip-rule="evenodd" d="M137.99 31.7498L122.47 3.25H74.594L90.0409 31.7498H137.99ZM62.2976 32.865C65.8115 35.9076 71.5211 36.4276 77.0114 36.4276H86.6011L102.121 65.0016H62.5895C57.5387 65.0016 52.5606 64.8534 47.656 63.6662C42.6777 62.4042 38.4325 60.3993 34.4055 57.3573C25.987 51.2717 21.3752 42.9588 16.544 34.0525C12.5985 26.8944 8.68985 19.6246 4.79196 12.3749C3.19349 9.4018 1.59668 6.43185 0 3.47458H44.4353C44.6547 3.86406 46.2634 6.83053 48.2199 10.4378C51.4813 16.4516 55.7086 24.2465 56.0745 24.8501C57.758 27.8925 59.3691 30.5644 62.2976 32.865ZM108.124 65L92.6042 36.3516H140.406L156 65H108.124ZM219.977 13.3936C221.16 14.5782 222.589 15.1706 224.265 15.1706C225.891 15.1706 227.296 14.5782 228.479 13.3936C229.613 12.2583 230.18 10.8515 230.18 9.17326C230.18 7.54436 229.613 6.16226 228.479 5.02697C227.296 3.84231 225.891 3.25 224.265 3.25C222.638 3.25 221.209 3.84231 219.977 5.02697C218.794 6.16226 218.202 7.54436 218.202 9.17326C218.202 10.8022 218.794 12.2089 219.977 13.3936ZM219.533 21.1679V64.1855H228.849V21.1679H219.533ZM211.728 64.1855V54.8564H185.259V6.06356H175.5V64.1855H211.728ZM306.377 64.1855H296.026L291.22 49.5996H269.262L264.53 64.1855H254.179L275.029 6.06356H285.453L306.377 64.1855ZM279.908 16.5033L272.071 40.7888H288.337L280.426 16.5033H279.908ZM347.006 64.1855V21.1679H337.691V45.6014C337.542 52.808 334.24 56.4359 327.782 56.4853C324.973 56.4853 322.977 55.7203 321.794 54.1902C320.611 52.6598 320.019 50.0438 320.019 46.3417V21.1679H310.777V48.0447C310.777 53.7212 312.108 57.9907 314.77 60.8536C317.333 63.6178 321.054 65 325.933 65C328.991 65 331.627 64.235 333.847 62.7049C335.621 61.4708 337.025 59.7678 338.058 57.5958H338.579L339.021 64.1855H347.006ZM377.562 56.2634V64.4816C375.739 64.8271 373.841 65 371.871 65C367.484 65 364.305 64.0373 362.333 62.1124C360.36 60.1874 359.375 56.979 359.375 52.4872V29.5345H352.943V21.1679H359.375V9.9877H368.618V21.1679H377.562V29.5345H368.618V52.2649C368.618 53.7953 368.813 54.8564 369.21 55.4489C369.603 55.9916 370.292 56.3124 371.28 56.4112C373.249 56.5594 375.346 56.51 377.562 56.2634ZM388.268 58.7805C391.914 62.9268 396.698 65 402.61 65C408.525 65 413.332 62.9268 417.03 58.7805C420.677 54.6835 422.5 49.2788 422.5 42.5656C422.5 36.0006 420.677 30.6698 417.03 26.5728C413.332 22.4266 408.525 20.3534 402.61 20.3534C396.698 20.3534 391.914 22.4266 388.268 26.5728C384.67 30.6698 382.869 36.0006 382.869 42.5656C382.869 49.2788 384.67 54.6835 388.268 58.7805ZM410.153 52.6351C408.33 55.0046 405.814 56.1892 402.61 56.1892C399.409 56.1892 396.919 55.0046 395.145 52.6351C393.322 50.2164 392.408 46.8601 392.408 42.5656C392.408 38.3208 393.295 35.0382 395.07 32.7181C396.893 30.3489 399.409 29.1643 402.61 29.1643C405.863 29.1643 408.401 30.3489 410.228 32.7181C412.051 35.0876 412.961 38.3702 412.961 42.5656C412.961 46.8601 412.025 50.2164 410.153 52.6351Z" fill="black" style="fill:black;fill-opacity:1;"/>
</g>
<defs>
<clipPath id="clip0_2_2">
<rect width="422.5" height="65" fill="white" style="fill:white;fill-opacity:1;"/>
</clipPath>
</defs>
</svg>
