<svg width="34" height="20" viewBox="0 0 34 20" fill="none" xmlns="http://www.w3.org/2000/svg">
<g clip-path="url(#clip0_132_1343)">
<path d="M2.9866 13.0667L0.266602 14.9867C0.675488 15.8578 1.24438 16.6667 1.97327 17.4133C2.70215 18.16 3.55549 18.7555 4.53327 19.2C5.52882 19.6267 6.59549 19.84 7.73327 19.84C8.5866 19.84 9.39547 19.7067 10.1599 19.44C10.9421 19.1911 11.6444 18.8267 12.2666 18.3467C12.8888 17.8489 13.3777 17.2445 13.7333 16.5333C14.0888 15.8222 14.2666 15.0133 14.2666 14.1067C14.2666 13.3067 14.1333 12.6045 13.8666 12C13.6177 11.3778 13.2621 10.8445 12.7999 10.4C12.3555 9.9378 11.8488 9.54667 11.2799 9.22667C10.7288 8.90667 10.1511 8.64 9.5466 8.42667C8.6044 8.10667 7.82214 7.79554 7.19994 7.49334C6.57772 7.17334 6.11549 6.84447 5.81327 6.50667C5.51105 6.15111 5.35993 5.74222 5.35993 5.28C5.35993 4.81778 5.5466 4.41778 5.91994 4.08C6.29327 3.72445 6.85327 3.54667 7.59994 3.54667C8.1688 3.54667 8.67547 3.66222 9.11994 3.89334C9.5644 4.10667 9.95547 4.4 10.2933 4.77334C10.6488 5.12889 10.9511 5.52889 11.1999 5.97334L14.1866 4.32C13.8666 3.66222 13.4133 3.03112 12.8266 2.42667C12.2577 1.80445 11.5377 1.29778 10.6666 0.90667C9.81327 0.49778 8.79107 0.293335 7.59994 0.293335C6.44438 0.293335 5.39549 0.506668 4.45327 0.933336C3.52882 1.34222 2.79105 1.93778 2.23993 2.72C1.7066 3.48445 1.43993 4.4 1.43993 5.46667C1.43993 6.35556 1.60882 7.12 1.9466 7.76C2.28438 8.3822 2.71105 8.91554 3.2266 9.36C3.74216 9.78667 4.28438 10.1422 4.85327 10.4267C5.43994 10.6933 5.95549 10.9067 6.39994 11.0667C7.23547 11.3867 7.93774 11.6889 8.5066 11.9733C9.09327 12.24 9.5288 12.5511 9.81327 12.9067C10.1155 13.2622 10.2666 13.7333 10.2666 14.32C10.2666 14.9955 10.0266 15.5289 9.5466 15.92C9.0666 16.3111 8.4444 16.5067 7.67994 16.5067C7.02214 16.5067 6.40882 16.3645 5.83994 16.08C5.27105 15.7955 4.7466 15.3955 4.2666 14.88C3.80438 14.3645 3.37771 13.76 2.9866 13.0667ZM17.3755 0.666668V19.3333H21.2689V0.666668H17.3755ZM23.7222 19.3333C25.6778 19.3333 27.3845 18.9511 28.8422 18.1867C30.3178 17.4222 31.4645 16.3467 32.2822 14.96C33.1 13.5555 33.5089 11.9022 33.5089 10C33.5089 8.0978 33.1 6.45334 32.2822 5.06667C31.4645 3.66222 30.3178 2.57778 28.8422 1.81334C27.3845 1.04889 25.6778 0.666668 23.7222 0.666668H19.8289V4.13334H23.5889C24.4067 4.13334 25.18 4.24889 25.9089 4.48C26.6378 4.69334 27.2778 5.04 27.8289 5.52C28.38 6 28.8067 6.61334 29.1089 7.36C29.4289 8.08887 29.5889 8.96887 29.5889 10C29.5889 11.0311 29.4289 11.92 29.1089 12.6667C28.8067 13.3955 28.38 14 27.8289 14.48C27.2778 14.96 26.6378 15.3155 25.9089 15.5467C25.18 15.76 24.4067 15.8667 23.5889 15.8667H19.8289V19.3333H23.7222Z" fill="#0B0D10" style="fill:#0B0D10;fill:color(display-p3 0.0431 0.0510 0.0627);fill-opacity:1;"/>
</g>
<defs>
<clipPath id="clip0_132_1343">
<rect width="34" height="20" fill="white" style="fill:white;fill-opacity:1;"/>
</clipPath>
</defs>
</svg>
