<svg width="450" height="60" viewBox="0 0 450 60" fill="none" xmlns="http://www.w3.org/2000/svg">
<g clip-path="url(#clip0_1_19)">
<path d="M426.904 2.09306L426.72 1.7041H413.657L434.264 57.5193V57.9083H447.51L426.904 2.09306Z" fill="black" style="fill:black;fill-opacity:1;"/>
<path d="M391.76 1.89858L375.753 57.9083H387.897L400.41 16.4844H415.313L409.977 1.7041L391.76 1.89858Z" fill="black" style="fill:black;fill-opacity:1;"/>
<path d="M14.7638 28.542L14.5798 28.3476V17.6513L20.8355 10.6501H58.9217L77.3207 29.9034V11.039L68.121 1.89858L11.268 1.7041L2.80438 11.039V23.2911L14.7638 36.5157V28.542Z" fill="black" style="fill:black;fill-opacity:1;"/>
<path d="M65.5454 42.1557H65.3614V42.5443L58.7377 48.7677H20.6515L2.80444 28.1531V48.5733L12.004 57.9083H68.1211L77.5047 48.3787V34.96L65.5454 22.9022V42.1557Z" fill="black" style="fill:black;fill-opacity:1;"/>
<path d="M204.643 28.542L204.459 28.3476V17.6513L210.714 10.6501H248.617L267.016 29.9034V11.039L258 1.89858L201.147 1.7041L192.499 11.039V23.2911L204.643 36.5157V28.542Z" fill="black" style="fill:black;fill-opacity:1;"/>
<path d="M255.424 42.1557H255.24V42.5443L248.617 48.7677H210.53L192.499 28.1531V48.5733L201.699 57.9083H258L267.2 48.3787V34.96L255.424 22.9022V42.1557Z" fill="black" style="fill:black;fill-opacity:1;"/>
<path d="M143.741 1.7041L136.566 40.5997L139.51 57.7137L144.477 57.9083L151.653 16.4844H160.668V58.297H172.628V11.2335L164.348 1.7041H143.741Z" fill="black" style="fill:black;fill-opacity:1;"/>
<path d="M104.551 1.89856L96.4556 11.6225V58.1027H97.1916C98.2956 58.1027 104.183 58.1027 108.047 58.1027H108.599V16.6789H117.615L124.238 58.297H136.382L126.446 1.89856H104.551Z" fill="black" style="fill:black;fill-opacity:1;"/>
<path d="M338.403 1.7041L350.73 11.8169V42.35L341.9 48.7677H300.686V11.039H343.923L332.7 1.7041H288.174V57.9083H354.043L362.873 48.5733V11.039L351.65 1.7041H338.403Z" fill="black" style="fill:black;fill-opacity:1;"/>
</g>
<defs>
<clipPath id="clip0_1_19">
<rect width="450" height="60" fill="white" style="fill:white;fill-opacity:1;"/>
</clipPath>
</defs>
</svg>
