<svg width="50" height="50" viewBox="0 0 50 50" fill="none" xmlns="http://www.w3.org/2000/svg">
<rect width="50" height="50" rx="5" fill="#0B0D10" style="fill:#0B0D10;fill:color(display-p3 0.0431 0.0510 0.0627);fill-opacity:1;"/>
<rect width="50" height="50" rx="5" fill="black" fill-opacity="0.2" style="fill:black;fill-opacity:0.2;"/>
<path d="M29.7413 24.3748H18.125C17.9592 24.3748 17.8003 24.4407 17.6831 24.5579C17.5658 24.6751 17.5 24.8341 17.5 24.9998C17.5 25.1656 17.5658 25.3245 17.6831 25.4418C17.8003 25.559 17.9592 25.6248 18.125 25.6248H29.7413L25.1825 30.1823C25.0651 30.2997 24.9992 30.4588 24.9992 30.6248C24.9992 30.7908 25.0651 30.95 25.1825 31.0673C25.2999 31.1847 25.459 31.2506 25.625 31.2506C25.791 31.2506 25.9501 31.1847 26.0675 31.0673L31.6925 25.4423C31.7507 25.3843 31.7969 25.3153 31.8284 25.2394C31.8599 25.1634 31.8761 25.082 31.8761 24.9998C31.8761 24.9176 31.8599 24.8362 31.8284 24.7603C31.7969 24.6843 31.7507 24.6154 31.6925 24.5573L26.0675 18.9323C25.9501 18.815 25.791 18.749 25.625 18.749C25.459 18.749 25.2999 18.815 25.1825 18.9323C25.0651 19.0497 24.9992 19.2088 24.9992 19.3748C24.9992 19.5408 25.0651 19.7 25.1825 19.8173L29.7413 24.3748Z" fill="white" style="fill:white;fill-opacity:1;"/>
</svg>
