<svg width="24" height="24" viewBox="0 0 24 24" fill="none" xmlns="http://www.w3.org/2000/svg">
<path d="M12 4.0752C12.0869 4.0752 12.182 4.09759 12.29 4.15918C12.3619 4.20021 12.4198 4.26153 12.4639 4.36719L12.4648 4.36914L14.3398 8.81934L14.457 9.09668L14.7568 9.12305L19.585 9.5459C19.7498 9.57018 19.8315 9.61672 19.8711 9.65137C19.9347 9.70704 19.9894 9.78419 20.0303 9.89648C20.0644 9.99053 20.0714 10.0822 20.0498 10.1826C20.0339 10.2567 19.9924 10.3376 19.8926 10.4268L16.2236 13.5967L15.9951 13.7939L16.0635 14.0889L17.1631 18.8135C17.1913 18.9365 17.1763 19.0145 17.1484 19.0732C17.098 19.1794 17.0307 19.2633 16.9443 19.3301C16.8749 19.3837 16.7925 19.4172 16.6826 19.4268C16.602 19.4337 16.5186 19.4176 16.4199 19.3545L16.1504 19.7754L16.4199 19.3535L16.4082 19.3467L12.2588 16.8467L12 16.6914L11.7422 16.8467L7.59277 19.3467H7.5918L7.58203 19.3535C7.48279 19.4167 7.39831 19.4336 7.31641 19.4268C7.20759 19.4176 7.12656 19.3837 7.05762 19.3301C6.97026 19.2621 6.90203 19.1789 6.85156 19.0732C6.8241 19.0157 6.80819 18.9364 6.83691 18.8115L7.9375 14.0889L8.00586 13.7939L7.77734 13.5967L4.10254 10.4219C4.0078 10.3345 3.96789 10.2548 3.95215 10.1816C3.93041 10.0804 3.93707 9.98877 3.9707 9.89551C4.01062 9.78502 4.06519 9.70801 4.12988 9.65137C4.17026 9.61606 4.25152 9.56952 4.41406 9.5459L9.24414 9.12305L9.54395 9.09668L9.66113 8.81934L11.5361 4.36914L11.5371 4.36719C11.5812 4.26151 11.639 4.20019 11.7109 4.15918C11.8188 4.0977 11.9132 4.07525 12 4.0752Z" stroke="black" style="stroke:black;stroke-opacity:1;"/>
</svg>
