<svg width="539" height="107" viewBox="0 0 539 107" fill="none" xmlns="http://www.w3.org/2000/svg">
<g clip-path="url(#clip0_2_6)">
<path d="M96.1399 94.5498H70.2564V62.5688L44.3725 36.6923V8.20376H96.1097L96.1399 94.5498ZM9.87077 94.5498V8.20376H35.7242V40.2458L61.6079 66.1223V94.5196L9.87077 94.5498ZM104.758 -0.421722H1.25293V103.175H104.758V-0.421722Z" fill="black" style="fill:black;fill-opacity:1;"/>
<path d="M193.408 27.1301L155.105 67.1154H191.415V75.2688H135V75.0956L173.303 35.1533H137.123V27H193.451V27.1301H193.408Z" fill="black" style="fill:black;fill-opacity:1;"/>
<path d="M432.923 75.312L397.523 50.3757V75.312H387.644V27H397.523V50.2451L431.927 27H447.135L412.558 50.0719L448.306 75.2688H432.923V75.312Z" fill="black" style="fill:black;fill-opacity:1;"/>
<path d="M532.541 75.312L505.722 57.2709H510.703C520.147 57.2709 528.424 51.8498 528.424 42.6561V42.0054C528.424 32.6379 520.063 27 510.355 27H471.054V75.2688H480.936V50.0719L517.984 75.2688H532.541V75.312ZM480.894 35.1965H510.529C514.214 35.1965 517.636 36.6712 518.589 39.6636C518.631 40.1838 518.763 41.4415 518.763 42.6992C518.763 44.0001 518.679 45.2579 518.589 45.7349C517.594 48.3804 514.214 49.9851 510.529 49.9851H480.894V35.1965Z" fill="black" style="fill:black;fill-opacity:1;"/>
<path d="M273.552 66.7253V75.312H223.42V27H273.552V35.5872H232.996V45.9518H271.43V54.539H232.996V66.6821H273.552V66.7253Z" fill="black" style="fill:black;fill-opacity:1;"/>
<path d="M355.67 66.7253V75.312H305.537V27H355.67V35.5872H315.113V45.9518H353.547V54.539H315.113V66.6821H355.67V66.7253Z" fill="black" style="fill:black;fill-opacity:1;"/>
</g>
<defs>
<clipPath id="clip0_2_6">
<rect width="539" height="107" fill="white" style="fill:white;fill-opacity:1;"/>
</clipPath>
</defs>
</svg>
