<svg width="55" height="55" viewBox="0 0 55 55" fill="none" xmlns="http://www.w3.org/2000/svg">
<path d="M32.5897 24.6667C34.1997 24.6667 35.5063 25.9733 35.5063 27.5833V35.4983C35.5063 37.4879 34.716 39.396 33.3092 40.8028C31.9023 42.2096 29.9942 43 28.0047 43C26.0151 43 24.107 42.2096 22.7002 40.8028C21.2934 39.396 20.503 37.4879 20.503 35.4983V27.5833C20.503 25.9733 21.808 24.6667 23.4197 24.6667H32.5897ZM19.8847 24.6667C19.2824 25.3879 18.9211 26.2796 18.8513 27.2167L18.8347 27.5833V35.4983C18.8347 36.91 19.1547 38.2467 19.7247 39.44C19.1736 39.59 18.5986 39.6656 17.9997 39.6667C17.1241 39.6667 16.257 39.4942 15.4481 39.159C14.6391 38.8239 13.9041 38.3327 13.285 37.7135C12.666 37.0942 12.1749 36.3591 11.84 35.5501C11.5051 34.741 11.3328 33.874 11.333 32.9983V27.5833C11.333 26.8513 11.6083 26.1461 12.1041 25.6077C12.6 25.0692 13.2802 24.7369 14.0097 24.6767L14.2497 24.6667H19.8847ZM36.1247 24.6667H41.7497C43.3597 24.6667 44.6663 25.9733 44.6663 27.5833V33C44.6666 34.0219 44.4319 35.0303 43.9803 35.947C43.5288 36.8638 42.8725 37.6645 42.0623 38.2873C41.252 38.91 40.3094 39.3382 39.3073 39.5386C38.3052 39.7391 37.2705 39.7065 36.283 39.4433C36.783 38.3967 37.0897 37.2433 37.158 36.0233L37.173 35.4983V27.5833C37.173 26.475 36.7813 25.4583 36.1247 24.6667ZM27.9997 13C29.3258 13 30.5975 13.5268 31.5352 14.4645C32.4729 15.4021 32.9997 16.6739 32.9997 18C32.9997 19.3261 32.4729 20.5979 31.5352 21.5355C30.5975 22.4732 29.3258 23 27.9997 23C26.6736 23 25.4018 22.4732 24.4641 21.5355C23.5265 20.5979 22.9997 19.3261 22.9997 18C22.9997 16.6739 23.5265 15.4021 24.4641 14.4645C25.4018 13.5268 26.6736 13 27.9997 13ZM38.833 14.6667C39.9381 14.6667 40.9979 15.1057 41.7793 15.8871C42.5607 16.6685 42.9997 17.7283 42.9997 18.8333C42.9997 19.9384 42.5607 20.9982 41.7793 21.7796C40.9979 22.561 39.9381 23 38.833 23C37.7279 23 36.6681 22.561 35.8867 21.7796C35.1053 20.9982 34.6663 19.9384 34.6663 18.8333C34.6663 17.7283 35.1053 16.6685 35.8867 15.8871C36.6681 15.1057 37.7279 14.6667 38.833 14.6667ZM17.1663 14.6667C18.2714 14.6667 19.3312 15.1057 20.1126 15.8871C20.894 16.6685 21.333 17.7283 21.333 18.8333C21.333 19.9384 20.894 20.9982 20.1126 21.7796C19.3312 22.561 18.2714 23 17.1663 23C16.0613 23 15.0015 22.561 14.2201 21.7796C13.4387 20.9982 12.9997 19.9384 12.9997 18.8333C12.9997 17.7283 13.4387 16.6685 14.2201 15.8871C15.0015 15.1057 16.0613 14.6667 17.1663 14.6667Z" fill="black" style="fill:black;fill-opacity:1;"/>
</svg>
