<svg width="55" height="55" viewBox="0 0 55 55" fill="none" xmlns="http://www.w3.org/2000/svg">
<path fill-rule="evenodd" clip-rule="evenodd" d="M27.9995 11.3333C30.9179 11.3333 33.3162 12.32 34.9462 13.265C37.1528 14.5433 37.9995 16.9483 37.9995 19.095V21.945C38.6612 22.3666 39.2778 22.7783 39.8245 23.1583L40.7662 23.8233L40.9328 23.9433C41.4195 24.2944 41.899 24.6566 42.3712 25.03C43.0812 25.5966 43.2045 26.6633 42.6345 27.375C42.3584 27.7198 41.9566 27.9409 41.5175 27.9897C41.0784 28.0384 40.6379 27.9109 40.2928 27.635C39.5471 27.0478 38.7822 26.4853 37.9995 25.9483V37.31C37.9995 39.2611 37.2244 41.1323 35.8448 42.5119C34.4652 43.8916 32.594 44.6666 30.6429 44.6666H25.3562C23.4051 44.6666 21.5339 43.8916 20.1542 42.5119C18.7746 41.1323 17.9995 39.2611 17.9995 37.31V25.9483C17.2212 26.4883 16.4495 27.0433 15.7079 27.635C15.3626 27.9112 14.9218 28.0391 14.4823 27.9903C14.0429 27.9415 13.6408 27.7202 13.3645 27.375C13.0883 27.0298 12.9604 26.5889 13.0092 26.1495C13.058 25.71 13.2793 25.3079 13.6245 25.0316C14.0979 24.6594 14.5784 24.2966 15.0662 23.9433L15.7762 23.435C16.4162 22.985 17.1729 22.4716 17.9995 21.9466V19.095C17.9995 16.9466 18.8462 14.5433 21.0529 13.265C22.6829 12.32 25.0829 11.3333 27.9995 11.3333ZM34.6662 27.0233C33.6512 28.0383 32.9995 29.2983 32.9995 30.7616V36.3333C32.9995 37.2174 32.6483 38.0652 32.0232 38.6903C31.3981 39.3155 30.5502 39.6666 29.6662 39.6666H26.3329C25.4488 39.6666 24.601 39.3155 23.9758 38.6903C23.3507 38.0652 22.9995 37.2174 22.9995 36.3333V30.7616C22.9995 29.2983 22.3479 28.0383 21.3329 27.0233V37.31C21.3329 37.8383 21.4369 38.3615 21.6391 38.8496C21.8413 39.3378 22.1377 39.7813 22.5113 40.1549C22.8849 40.5285 23.3284 40.8249 23.8165 41.0271C24.3047 41.2292 24.8278 41.3333 25.3562 41.3333H30.6429C31.1712 41.3333 31.6944 41.2292 32.1825 41.0271C32.6706 40.8249 33.1142 40.5285 33.4878 40.1549C33.8614 39.7813 34.1577 39.3378 34.3599 38.8496C34.5621 38.3615 34.6662 37.8383 34.6662 37.31V27.0233ZM27.9995 14.6666C25.8379 14.6666 24.0162 15.4 22.7245 16.15C21.8712 16.6416 21.3329 17.705 21.3329 19.0933V20.0266C21.9345 19.7183 22.5479 19.4283 23.1595 19.17C24.7229 18.5133 26.4229 18 27.9995 18C29.5762 18 31.2762 18.5133 32.8395 19.1716C33.4512 19.43 34.0645 19.72 34.6662 20.0266V19.0933C34.6662 17.7066 34.1279 16.6433 33.2745 16.1483C31.9829 15.4 30.1612 14.6666 27.9995 14.6666Z" fill="black" style="fill:black;fill-opacity:1;"/>
</svg>
