<svg width="55" height="55" viewBox="0 0 55 55" fill="none" xmlns="http://www.w3.org/2000/svg">
<path d="M26.75 11.455C25.74 11.6433 24.5533 12.05 22.73 12.675L21.775 13C16.7633 14.7166 14.2583 15.5733 13.63 16.47C13.0133 17.3466 13 19.9166 13 25.0166L26.75 20.4333V11.455ZM26.75 23.0666L13 27.65V27.985C13 37.3816 20.065 41.9416 24.4983 43.8783C25.3483 44.25 25.8983 44.49 26.75 44.5983V23.0666ZM29.25 44.6V23.0666L43 27.65V27.985C43 37.3816 35.935 41.9416 31.5017 43.8783C30.6517 44.25 30.1017 44.4916 29.25 44.6ZM29.25 20.4333V11.4533C30.26 11.6416 31.4467 12.0483 33.27 12.6733L34.225 13C39.2367 14.715 41.7417 15.5716 42.37 16.4683C42.9867 17.345 43 19.915 43 25.0133L29.25 20.4333Z" fill="black" style="fill:black;fill-opacity:1;"/>
</svg>
